<mxfile host="65bd71144e">
    <diagram id="roC0KP13lX_k1JsnQ3pK" name="PÃ¡gina-1">
        <mxGraphModel dx="516" dy="363" grid="0" gridSize="10" guides="1" tooltips="1" connect="1" arrows="1" fold="1" page="1" pageScale="1" pageWidth="827" pageHeight="1169" background="#ffffff" math="0" shadow="0">
            <root>
                <mxCell id="0"/>
                <mxCell id="1" parent="0"/>
                <mxCell id="2" value="Normalizacion&amp;nbsp; : MER&amp;nbsp;" style="rounded=1;whiteSpace=wrap;html=1;fillColor=#f5f5f5;fontColor=#333333;strokeColor=#666666;" vertex="1" parent="1">
                    <mxGeometry x="39" y="56" width="145" height="28" as="geometry"/>
                </mxCell>
                <mxCell id="3" value="&lt;div style=&quot;text-align: left;&quot;&gt;&lt;span style=&quot;background-color: initial;&quot;&gt;1N&amp;nbsp; &amp;nbsp; &amp;nbsp; &amp;nbsp; &amp;nbsp; &amp;nbsp; &amp;nbsp; &amp;nbsp;1.........1&amp;nbsp;&lt;/span&gt;&lt;/div&gt;&lt;div style=&quot;text-align: left;&quot;&gt;&lt;span style=&quot;background-color: initial;&quot;&gt;2N&amp;nbsp; &amp;nbsp; &amp;nbsp; &amp;nbsp; &amp;nbsp; &amp;nbsp; &amp;nbsp; &amp;nbsp;1.........*&lt;/span&gt;&lt;/div&gt;&lt;div style=&quot;text-align: left;&quot;&gt;&lt;span style=&quot;background-color: initial;&quot;&gt;3N&amp;nbsp; &amp;nbsp; &amp;nbsp; &amp;nbsp; &amp;nbsp; &amp;nbsp; &amp;nbsp; &amp;nbsp;*.........*&lt;/span&gt;&lt;/div&gt;" style="rounded=1;whiteSpace=wrap;html=1;fillColor=#f5f5f5;fontColor=#333333;strokeColor=#666666;" vertex="1" parent="1">
                    <mxGeometry x="39" y="99" width="145" height="55" as="geometry"/>
                </mxCell>
                <mxCell id="4" value="&lt;font color=&quot;#000000&quot;&gt;T(pk)......T(pk)&lt;/font&gt;" style="text;html=1;strokeColor=none;fillColor=none;align=center;verticalAlign=middle;whiteSpace=wrap;rounded=0;" vertex="1" parent="1">
                    <mxGeometry x="220" y="33" width="60" height="30" as="geometry"/>
                </mxCell>
                <mxCell id="5" value="&lt;font color=&quot;#000000&quot;&gt;T(pk)......T(fk)&lt;/font&gt;" style="text;html=1;strokeColor=none;fillColor=none;align=center;verticalAlign=middle;whiteSpace=wrap;rounded=0;" vertex="1" parent="1">
                    <mxGeometry x="220" y="78.5" width="60" height="30" as="geometry"/>
                </mxCell>
                <mxCell id="6" value="&lt;font color=&quot;#000000&quot;&gt;T(pk)......T(pk)&lt;/font&gt;" style="text;html=1;strokeColor=none;fillColor=none;align=center;verticalAlign=middle;whiteSpace=wrap;rounded=0;" vertex="1" parent="1">
                    <mxGeometry x="220" y="124" width="60" height="30" as="geometry"/>
                </mxCell>
                <mxCell id="7" value="&lt;font color=&quot;#000000&quot;&gt;Tc(fka,fkb)&lt;/font&gt;" style="text;html=1;strokeColor=none;fillColor=none;align=center;verticalAlign=middle;whiteSpace=wrap;rounded=0;" vertex="1" parent="1">
                    <mxGeometry x="218" y="164" width="60" height="30" as="geometry"/>
                </mxCell>
                <mxCell id="8" value="" style="endArrow=classic;html=1;fontColor=#000000;fillColor=#76608a;strokeColor=#432D57;" edge="1" parent="1">
                    <mxGeometry width="50" height="50" relative="1" as="geometry">
                        <mxPoint x="269" y="36" as="sourcePoint"/>
                        <mxPoint x="227" y="36" as="targetPoint"/>
                        <Array as="points">
                            <mxPoint x="251" y="26"/>
                        </Array>
                    </mxGeometry>
                </mxCell>
                <mxCell id="9" value="" style="endArrow=classic;html=1;fontColor=#000000;fillColor=#76608a;strokeColor=#432D57;" edge="1" parent="1">
                    <mxGeometry width="50" height="50" relative="1" as="geometry">
                        <mxPoint x="230.5" y="63" as="sourcePoint"/>
                        <mxPoint x="269.5" y="63" as="targetPoint"/>
                        <Array as="points">
                            <mxPoint x="248.5" y="68"/>
                        </Array>
                    </mxGeometry>
                </mxCell>
                <mxCell id="18" value="" style="endArrow=classic;html=1;labelBackgroundColor=#FFFFFF;fontColor=#000000;fillColor=#76608a;strokeColor=#432D57;" edge="1" parent="1">
                    <mxGeometry width="50" height="50" relative="1" as="geometry">
                        <mxPoint x="225" y="168" as="sourcePoint"/>
                        <mxPoint x="225" y="152" as="targetPoint"/>
                    </mxGeometry>
                </mxCell>
                <mxCell id="19" value="" style="endArrow=classic;html=1;labelBackgroundColor=#FFFFFF;fontColor=#000000;fillColor=#76608a;strokeColor=#432D57;" edge="1" parent="1">
                    <mxGeometry width="50" height="50" relative="1" as="geometry">
                        <mxPoint x="272.9999999999999" y="170" as="sourcePoint"/>
                        <mxPoint x="272.9999999999999" y="154" as="targetPoint"/>
                    </mxGeometry>
                </mxCell>
                <mxCell id="20" value="a) atomicidad" style="text;html=1;strokeColor=none;fillColor=none;align=center;verticalAlign=middle;whiteSpace=wrap;rounded=0;labelBackgroundColor=#FFFFFF;fontColor=#000000;" vertex="1" parent="1">
                    <mxGeometry x="39" y="200" width="98" height="18" as="geometry"/>
                </mxCell>
                <mxCell id="21" value="b) integridad ref" style="text;html=1;strokeColor=none;fillColor=none;align=center;verticalAlign=middle;whiteSpace=wrap;rounded=0;labelBackgroundColor=#FFFFFF;fontColor=#000000;" vertex="1" parent="1">
                    <mxGeometry x="39" y="230" width="98" height="18" as="geometry"/>
                </mxCell>
                <mxCell id="22" value="Actor" style="shape=umlActor;verticalLabelPosition=bottom;verticalAlign=top;html=1;outlineConnect=0;labelBackgroundColor=#FFFFFF;fontColor=#ffffff;fillColor=#76608a;strokeColor=#432D57;" vertex="1" parent="1">
                    <mxGeometry x="87" y="257" width="15" height="26" as="geometry"/>
                </mxCell>
            </root>
        </mxGraphModel>
    </diagram>
</mxfile>